# xmcd
#
# Track frame offsets:
#	150
#	5162
#	19030
#	32030
#	48454
#	59488
#	76093
#	93123
#	106390
#	120768
#	135915
#	152154
#	164703
#	186480
#	203570
#	233837
#	249224
#	274096
#	289404
#	309130
#	319843
#
# Disc length: 4573 seconds
#
# Revision: 1
# Processed by: cddbd v1.5.1PL0 Copyright (c) Steve Scherf et al.
# Submitted via: audiograbber 1.82.02
#
DISCID=1311db15
DTITLE=Col Elliot - Pickin' Singin' Stories N' Stuff
DYEAR=1900
DGENRE=
TTITLE0=Barra Creek Boys
TTITLE1=Bob Menzies
TTITLE2=Skase (What's That On Your Face)
TTITLE3=Toke By Toke
TTITLE4=Comin' Up Roses
TTITLE5=Henry Banjo And Me
TTITLE6=Hankies From Nanna
TTITLE7=Line Dancin'
TTITLE8=Click Go The Shears
TTITLE9=Dinky Di Aussie
TTITLE10=Gone Fishin'
TTITLE11=It's A Feelin'
TTITLE12=If Wishes Were Horses
TTITLE13=Gotta Give The Grog Away
TTITLE14=I Hear A Sound
TTITLE15=Green Green Grass
TTITLE16=Zzarr
TTITLE17=Smokin' Again
TTITLE18=What's A Pommie
TTITLE19=Woulda Coulda Shoulda
TTITLE20=What Have You Done For Australia
EXTD=
EXTT0=
EXTT1=
EXTT2=
EXTT3=
EXTT4=
EXTT5=
EXTT6=
EXTT7=
EXTT8=
EXTT9=
EXTT10=
EXTT11=
EXTT12=
EXTT13=
EXTT14=
EXTT15=
EXTT16=
EXTT17=
EXTT18=
EXTT19=
EXTT20=
PLAYORDER=
